<?xml version="1.0" encoding="UTF-8" standalone="no"?>
<svg
   xmlns:dc="http://purl.org/dc/elements/1.1/"
   xmlns:cc="http://creativecommons.org/ns#"
   xmlns:rdf="http://www.w3.org/1999/02/22-rdf-syntax-ns#"
   xmlns:svg="http://www.w3.org/2000/svg"
   xmlns="http://www.w3.org/2000/svg"
   xmlns:sodipodi="http://sodipodi.sourceforge.net/DTD/sodipodi-0.dtd"
   xmlns:inkscape="http://www.inkscape.org/namespaces/inkscape"
   width="38mm"
   height="38mm"
   viewBox="0 0 38 38"
   version="1.1"
   id="svg851"
   inkscape:version="1.0.2 (e86c870879, 2021-01-15)"
   sodipodi:docname="dubhealers-logo-inv.svg">
  <defs
     id="defs845">
    <marker
       style="overflow:visible"
       id="marker1149"
       refX="0"
       refY="0"
       orient="auto"
       inkscape:stockid="Arrow1Lstart"
       inkscape:isstock="true">
      <path
         transform="matrix(0.8,0,0,0.8,10,0)"
         style="fill-rule:evenodd;stroke:#000000;stroke-width:1pt"
         d="M 0,0 5,-5 -12.5,0 5,5 Z"
         id="path1147" />
    </marker>
    <marker
       style="overflow:visible"
       id="Arrow1Lstart"
       refX="0"
       refY="0"
       orient="auto"
       inkscape:stockid="Arrow1Lstart"
       inkscape:isstock="true">
      <path
         transform="matrix(0.8,0,0,0.8,10,0)"
         style="fill-rule:evenodd;stroke:#000000;stroke-width:1pt"
         d="M 0,0 5,-5 -12.5,0 5,5 Z"
         id="path877" />
    </marker>
  </defs>
  <sodipodi:namedview
     id="base"
     pagecolor="#ffffff"
     bordercolor="#666666"
     borderopacity="1.0"
     inkscape:pageopacity="0.0"
     inkscape:pageshadow="2"
     inkscape:zoom="0.98994949"
     inkscape:cx="151.11659"
     inkscape:cy="103.93239"
     inkscape:document-units="mm"
     inkscape:current-layer="layer3"
     inkscape:document-rotation="0"
     showgrid="false"
     inkscape:window-width="1920"
     inkscape:window-height="1016"
     inkscape:window-x="0"
     inkscape:window-y="27"
     inkscape:window-maximized="1"
     lock-margins="true"
     fit-margin-top="1"
     fit-margin-left="1"
     fit-margin-right="1"
     fit-margin-bottom="1" />
  <metadata
     id="metadata848">
    <rdf:RDF>
      <cc:Work
         rdf:about="">
        <dc:format>image/svg+xml</dc:format>
        <dc:type
           rdf:resource="http://purl.org/dc/dcmitype/StillImage" />
        <dc:title></dc:title>
      </cc:Work>
    </rdf:RDF>
  </metadata>
  <g
     inkscape:groupmode="layer"
     id="layer4"
     inkscape:label="background"
     style="display:none"
     transform="translate(-82.667382,-71.526688)" />
  <g
     inkscape:groupmode="layer"
     id="layer5"
     inkscape:label="circle"
     style="display:none"
     transform="translate(-82.667382,-71.526688)" />
  <g
     inkscape:groupmode="layer"
     id="layer3"
     inkscape:label="colors"
     style="display:inline"
     transform="translate(-82.667382,-71.526688)">
    <g
       id="g4785">
      <path
         id="path1476-3-8-5"
         style="display:inline;fill:#ff0000;fill-opacity:1;stroke:none;stroke-width:3.77953;stroke-miterlimit:4;stroke-dasharray:none;stroke-opacity:1"
         transform="scale(0.26458333)"
         d="m 417.33984,307.71875 c -0.99188,0.0189 -1.96064,0.47552 -2.60351,1.30859 l -20.71289,26.90039 c -1.24037,1.61556 -0.77831,3.95604 0.98242,4.97266 l 14.41602,8.32227 -19.23633,20.38672 c -1.50286,1.59348 -7.75949,8.71068 -5.90235,9.7832 1.0201,0.58892 8.96403,-3.95197 10.03125,-4.56641 L 437.00195,350.25 c 2.24373,-1.27853 2.2576,-4.52664 0.01,-5.82422 h -0.002 l -14.01172,-8.08984 14.27343,-12.77735 c 1.5515,-1.5654 1.20748,-4.19222 -0.69921,-5.29297 l -17.48829,-10.0957 c -0.54646,-0.31554 -1.149,-0.46249 -1.74414,-0.45117 z m -48.73046,5.72461 c -1.06036,0.0436 -2.10423,0.1955 -3.1211,0.44336 -1.01687,0.24786 -2.00674,0.59236 -2.95703,1.02734 -0.95029,0.43498 -1.86206,0.95947 -2.72266,1.56446 -0.8606,0.60499 -1.67015,1.29094 -2.41797,2.04882 -0.3739,0.37895 -0.73284,0.7755 -1.07421,1.18946 -0.34138,0.41396 -0.66474,0.84418 -0.97071,1.29101 -0.30596,0.44684 -0.59367,0.9111 -0.86132,1.38867 -0.53532,0.95515 -0.99069,1.9699 -1.35547,3.03516 l -1.14453,3.33398 -3.29883,-1.24414 c -1.05191,-0.39861 -2.12281,-0.6939 -3.19922,-0.89062 -0.53821,-0.0984 -1.07812,-0.17151 -1.61719,-0.2207 -0.53907,-0.0492 -1.0788,-0.0753 -1.61523,-0.0762 -0.53644,-8.9e-4 -1.06932,0.0218 -1.59961,0.0684 -0.53029,0.0465 -1.05749,0.11784 -1.57813,0.21094 -0.52064,0.0931 -1.03548,0.20887 -1.54297,0.34766 -0.50748,0.13879 -1.00722,0.30076 -1.49804,0.48437 -1.47248,0.55084 -2.86166,1.29968 -4.1211,2.23828 -0.41981,0.31287 -0.82571,0.64774 -1.21484,1.00196 -0.38913,0.35421 -0.76224,0.72835 -1.11719,1.12304 -0.70989,0.78939 -1.34827,1.65939 -1.90039,2.60547 -0.27606,0.47304 -0.53036,0.96565 -0.76172,1.47656 -0.26486,0.58607 -0.49363,1.17868 -0.68945,1.7754 -0.19582,0.59671 -0.35746,1.19787 -0.48633,1.80078 -0.12887,0.60291 -0.22504,1.20783 -0.28906,1.8125 -0.12804,1.20933 -0.1286,2.41773 -0.01,3.60742 0.0594,0.59484 0.14763,1.18431 0.26563,1.76758 0.118,0.58327 0.26496,1.15931 0.43945,1.72656 0.17449,0.56725 0.37658,1.12509 0.60547,1.67187 0.22889,0.54679 0.48443,1.08359 0.76562,1.60547 0.8436,1.56564 1.91859,3.00804 3.19532,4.26953 1.48952,1.47175 3.25418,2.69533 5.25,3.57618 0.28511,0.12583 0.57473,0.24586 0.86914,0.35742 l 32.42383,12.26367 c 0.26177,0.0989 0.52658,0.16684 0.79101,0.20898 0.79331,0.12645 1.5838,0.006 2.27734,-0.32031 0.46237,-0.21757 0.88117,-0.52561 1.23047,-0.91211 0.3493,-0.38649 0.62929,-0.85129 0.81055,-1.38086 l 11.21875,-32.80078 c 0.20412,-0.59623 0.3729,-1.19596 0.50977,-1.79883 0.54744,-2.41146 0.56588,-4.85919 0.12109,-7.19921 -0.1112,-0.58501 -0.25195,-1.16299 -0.41992,-1.73243 -0.33595,-1.13887 -0.78353,-2.24301 -1.33399,-3.29297 -0.55046,-1.04995 -1.20296,-2.04519 -1.95117,-2.9707 -0.3741,-0.46275 -0.77296,-0.909 -1.19336,-1.33398 -0.42039,-0.42499 -0.86158,-0.83013 -1.32617,-1.21289 -0.92918,-0.76554 -1.94569,-1.44169 -3.03906,-2.01172 -0.82003,-0.42753 -1.68375,-0.79564 -2.58789,-1.09571 -0.30138,-0.10002 -0.60777,-0.19259 -0.91797,-0.27734 -1.62339,-0.4422 -3.24932,-0.61623 -4.83984,-0.55078 z m 83.67679,28.70476 a 68.031497,68.031497 0 0 1 -68.0315,68.0315 68.031497,68.031497 0 0 1 -68.03149,-68.0315 68.031497,68.031497 0 0 1 68.03149,-68.0315 68.031497,68.031497 0 0 1 68.0315,68.0315 z" />
    </g>
  </g>
  <g
     inkscape:label="Layer 1"
     inkscape:groupmode="layer"
     id="layer1"
     style="display:none"
     transform="translate(-82.667382,-71.526688)" />
  <g
     inkscape:groupmode="layer"
     id="layer2"
     inkscape:label="txt"
     style="display:none"
     sodipodi:insensitive="true"
     transform="translate(-82.667382,-71.526688)">
    <text
       xml:space="preserve"
       style="font-style:normal;font-variant:normal;font-weight:bold;font-stretch:normal;font-size:23.2275px;line-height:1.25;font-family:Comfortaa;-inkscape-font-specification:'Comfortaa Bold';stroke-width:0.580691"
       x="10.681025"
       y="113.74637"
       id="text1586"><tspan
         sodipodi:role="line"
         id="tspan1584"
         x="10.681025"
         y="113.74637"
         style="font-style:normal;font-variant:normal;font-weight:bold;font-stretch:normal;font-family:Comfortaa;-inkscape-font-specification:'Comfortaa Bold';stroke-width:0.580691">Comfortaa Bold</tspan></text>
  </g>
</svg>
