<svg xmlns="http://www.w3.org/2000/svg" width="797.09" height="102.02" viewBox="0 0 210.9 26.99">
  <g class="svg-logo">
    <path d="M94.42 15.67l-3.71-2.14 3.77-3.38a.9.9 0 00-.18-1.4l-4.63-2.67a.9.9 0 00-1.15.22l-5.48 7.12a.9.9 0 00.26 1.32l3.82 2.2-5.1 5.4c-.4.41-2.05 2.3-1.56 2.58.27.16 2.38-1.05 2.66-1.2l11.3-6.51c.59-.34.59-1.2 0-1.54z"/>
    <path d="M77.6 7.62a4.5 4.5 0 00-5.38 3.02l-.3.89-.87-.33a4.5 4.5 0 00-5.76 2.21 4.74 4.74 0 002.62 6.34L76.5 23c.55.2 1.16-.08 1.35-.64l2.97-8.68a4.73 4.73 0 00-3.21-6.06z"/>
  </g>
  <g class="svg-text" aria-label="dub healers" style="line-height:1.25;-inkscape-font-specification:'Comfortaa, Bold'" font-weight="700" font-size="28.22" font-family="Comfortaa" stroke-width=".26" fill="#504416">
    <path d="M16.11 2q.65 0 1.05.4.39.39.39 1.04V16.3q0 2.2-1.04 4-1.02 1.78-2.8 2.83-1.75 1.01-3.92 1.01T5.8 23.14q-1.78-1.05-2.8-2.82Q2 18.5 2 16.3q0-2.2.93-3.98.96-1.8 2.6-2.82 1.66-1.02 3.7-1.02 1.63 0 3.04.68 1.41.68 2.4 1.89V3.44q0-.65.4-1.04.42-.4 1.04-.4zM9.8 21.61q1.41 0 2.54-.67 1.16-.7 1.8-1.92.65-1.22.65-2.71 0-1.5-.64-2.68-.65-1.22-1.81-1.9-1.13-.7-2.54-.7-1.41 0-2.57.7-1.13.68-1.8 1.9-.65 1.18-.65 2.68 0 1.5.64 2.7.68 1.22 1.81 1.93 1.16.67 2.57.67z"/>
    <path d="M35.36 8.58q.65 0 1.04.4.4.39.4 1.04V22.6q0 .62-.4 1.05-.4.4-1.04.4-.62 0-1.05-.4-.4-.43-.4-1.05v-.3q-.9.9-2.14 1.4-1.24.48-2.65.48-1.95 0-3.5-.84-1.55-.85-2.43-2.46-.87-1.64-.87-3.92v-6.94q0-.63.4-1.02.42-.42 1.04-.42.62 0 1.02.42.42.4.42 1.02v6.94q0 2.28 1.21 3.47 1.24 1.16 3.28 1.16 1.18 0 2.14-.48.99-.48 1.52-1.3.57-.82.57-1.84v-7.95q0-.65.4-1.05.42-.4 1.04-.4z"/>
    <path d="M50.2 8.5q2.04 0 3.67 1 1.67 1.02 2.6 2.83.96 1.78.96 3.98t-1.02 4q-1.01 1.78-2.82 2.83-1.78 1.01-3.95 1.01t-3.95-1.01q-1.75-1.05-2.8-2.82-1.01-1.81-1.01-4.01V3.44q0-.65.4-1.04.42-.4 1.04-.4.65 0 1.04.4.4.39.4 1.04v7.62q.98-1.21 2.4-1.9 1.4-.67 3.04-.67zm-.56 13.11q1.41 0 2.54-.67 1.16-.7 1.8-1.92.68-1.22.68-2.71 0-1.5-.67-2.68-.65-1.22-1.81-1.9-1.13-.7-2.54-.7-1.41 0-2.57.7-1.13.68-1.78 1.9-.65 1.18-.65 2.68 0 1.5.65 2.7.65 1.22 1.78 1.93 1.16.67 2.57.67z"/>
    <path d="M110.74 8.46q1.95 0 3.5.85t2.43 2.48q.87 1.61.87 3.9v6.94q0 .62-.42 1.04-.4.4-1.02.4t-1.04-.4q-.4-.42-.4-1.04v-6.94q0-2.29-1.24-3.45-1.21-1.18-3.24-1.18-1.19 0-2.18.48-.96.48-1.52 1.3-.54.82-.54 1.83v7.96q0 .62-.4 1.04-.39.4-1.04.4-.62 0-1.04-.4-.4-.42-.4-1.04V3.43q0-.64.4-1.03.42-.4 1.04-.4.65 0 1.05.4.4.39.4 1.04v6.91q.9-.9 2.14-1.38 1.24-.5 2.65-.5z"/>
    <path d="M136.2 16.08q0 .54-.37.9-.37.34-.93.34h-10.73q.31 1.98 1.78 3.2 1.5 1.2 3.64 1.2.85 0 1.75-.3.93-.31 1.53-.77.4-.3.93-.3t.84.28q.51.42.51.96 0 .5-.45.84-.96.76-2.4 1.24-1.4.48-2.7.48-2.32 0-4.16-.98-1.83-1.02-2.87-2.8-1.02-1.78-1.02-4.03 0-2.26.96-4.04.99-1.8 2.7-2.8 1.76-1 3.96-1 2.17 0 3.75.95 1.58.96 2.43 2.68.85 1.72.85 3.95zm-7.03-5.16q-2.06 0-3.36 1.13-1.27 1.13-1.6 3.02h9.39q-.25-1.9-1.41-3.02-1.16-1.13-3.02-1.13z"/>
    <path d="M146.3 8.5q2.17 0 3.92 1.04 1.78 1.01 2.8 2.82 1.04 1.78 1.04 3.98v6.29q0 .62-.42 1.04-.4.4-1.02.4t-1.04-.4q-.4-.42-.4-1.04v-1.04q-.99 1.21-2.4 1.89-1.4.67-3.04.67-2.04 0-3.7-1.01-1.64-1.02-2.6-2.8-.93-1.8-.93-4t1.02-3.98q1.01-1.8 2.8-2.82 1.8-1.05 3.97-1.05zm0 13.11q1.41 0 2.54-.67 1.16-.7 1.8-1.9.66-1.2.66-2.7 0-1.5-.65-2.71-.65-1.22-1.81-1.9-1.13-.7-2.54-.7-1.41 0-2.57.7-1.13.68-1.8 1.9-.65 1.21-.65 2.7 0 1.5.65 2.72.67 1.18 1.8 1.89 1.16.67 2.57.67z"/>
    <path d="M162.02 24.04q-1.21 0-2.2-.65-.96-.67-1.5-1.86-.53-1.21-.53-2.71V3.42q0-.63.4-1.02.39-.4 1-.4.63 0 1.02.4.4.39.4 1.01v15.41q0 1.04.4 1.72.39.68 1.01.68h.7q.57 0 .9.4.38.39.38 1.01t-.54 1.02q-.54.4-1.38.4z"/>
    <path d="M179.83 16.08q0 .54-.37.9-.37.34-.93.34h-10.72q.3 1.98 1.77 3.2 1.5 1.2 3.64 1.2.85 0 1.75-.3.93-.31 1.53-.77.4-.3.93-.3.54 0 .85.28.5.42.5.96 0 .5-.45.84-.96.76-2.4 1.24-1.4.48-2.7.48-2.32 0-4.15-.98-1.84-1.02-2.88-2.8-1.02-1.78-1.02-4.03 0-2.26.96-4.04.99-1.8 2.7-2.8 1.76-1 3.96-1 2.17 0 3.75.95 1.58.96 2.43 2.68.85 1.72.85 3.95zm-7.03-5.16q-2.06 0-3.36 1.13-1.27 1.13-1.6 3.02h9.4q-.26-1.9-1.42-3.02-1.16-1.13-3.02-1.13z"/>
    <path d="M191.06 8.43q1.5 0 2.34.46.85.45.85 1.13 0 .2-.03.28-.25.9-1.13.9-.14 0-.42-.06-1.13-.2-1.84-.2-2.03 0-3.27.94-1.24.93-1.24 2.51v8.24q0 .68-.37 1.04-.34.37-1.04.37-.68 0-1.05-.34-.36-.36-.36-1.07V10.02q0-.68.36-1.05.37-.37 1.05-.37 1.4 0 1.4 1.42v.53q.86-.99 2.1-1.55 1.24-.57 2.65-.57z"/>
    <path d="M202.83 24.15q-1.92 0-3.61-.59-1.7-.6-2.66-1.55-.36-.37-.36-.88 0-.67.56-1.1.54-.4.99-.4.56 0 1.07.52.54.59 1.61 1.04 1.07.42 2.29.42 1.6 0 2.48-.53.9-.54.9-1.44 0-.88-.87-1.44-.88-.6-2.97-.99-5.41-1.04-5.41-4.46 0-1.38.81-2.34.82-.96 2.15-1.44t2.82-.48q1.84 0 3.27.6 1.47.59 2.32 1.63.37.45.37.9 0 .48-.48.88-.31.22-.8.22-.73 0-1.32-.53-.7-.65-1.5-.9-.79-.29-1.92-.29-1.3 0-2.14.45-.82.43-.82 1.22 0 .56.28.96.29.36 1.08.7.79.31 2.28.62 3.08.62 4.35 1.73 1.3 1.1 1.3 2.85 0 1.3-.7 2.37-.71 1.04-2.1 1.66-1.35.6-3.27.6z"/>
  </g>
</svg>
