<svg xmlns="http://www.w3.org/2000/svg" width="113.334" height="71.726" viewBox="0 0 29.986 18.978">
    <g class="svg-logo">
        <path d="M29.542 9.712l-3.708-2.14 3.777-3.38a.894.894 0 00-.185-1.401L24.799.119a.892.892 0 00-1.15.227l-5.481 7.118a.892.892 0 00.26 1.315l3.814 2.202-5.09 5.394c-.397.422-2.053 2.305-1.561 2.589.27.156 2.372-1.046 2.654-1.208l11.294-6.503a.888.888 0 00.002-1.54zM12.725 1.66c-2.291-.623-4.605.772-5.377 3.026l-.303.883-.873-.33c-2.226-.843-4.779.052-5.758 2.215-1.122 2.48.13 5.397 2.623 6.342l8.58 3.245c.553.209 1.159-.076 1.35-.636l2.969-8.679c.864-2.524-.585-5.348-3.211-6.065z"/>
    </g>
</svg>
